{"title":"Percy Jackson &amp; the Olympians, The Lightning Thief 2010 DVD9","uid":6880315,"size":1859307193,"categoryP":"video","categoryS":"movies","magnet":"?xt=urn:btih:b728c28f728970b795f396e6d748a10b84000313&amp;dn=Percy+Jackson+%26amp%3B+the+Olympians%2C+The+Lightning+Thief+2010+DVD9&amp;tr=udp%3A%2F%2Ftracker.openbittorrent.com%3A80&amp;tr=udp%3A%2F%2Fopen.demonii.com%3A1337&amp;tr=udp%3A%2F%2Ftracker.coppersurfer.tk%3A6969&amp;tr=udp%3A%2F%2Fexodus.desync.com%3A6969","seeders":1,"leechers":0,"uploader":"Klambake","files":-1,"time":1323629531,"description":"With: Logan Lerman, Uma Thurman en Pierce Brosnan\n\nPercy Jackson (Logan Lerman) is een jongen die op het punt staat om van de middelbare school getrapt te worden. Alweer. Maar dat is niet zijn grootste zorg. Dankzij een Satyr, genaamd Grover, komt Percy er achter dat hij deel uitmaakt van een mythische wereld vol magische wezens en dat hij de nakomeling is van de Griekse god Poseidon. Als de bliksemschicht van Zeus wordt gestolen, hebben Percy en zijn vrienden tien dagen de tijd om zijn onschuld te bewijzen en om een oorlog tussen de goden te voorkomen.\n\nA teenager discovers he's the descendant of a Greek god and sets out on an adventure to settle an on-going battle between the gods.\n\n------------------------ Dutch Friends ------------------------\n---------------------------------------------------------------\n- Bezoek ook eens mijn vrienden op: &lt;a href=&quot; http://www.Film-Test.nl&quot; rel=&quot;nofollow&quot; target=&quot;_NEW&quot;&gt; http://www.Film-Test.nl&lt;/a&gt; --\n----- voor mijn Nederlandse Sync. ondertitels ---- en meer ----\n------- http://www.Film-Test.nl ---- voor Films en meer -------\n---------------------------------------------------------------\n\nGeneral:\n\nComplete name                    : Percy Jackson &amp; the Olympians\\The Lightning Thief.avi\nFormat                           : AVI\nFormat/Info                      : Audio Video Interleave\nFile size                        : 1.73 GiB\nDuration                         : 1h 53mn\nOverall bit rate                 : 2 179 Kbps\n\nVideo:\n\nFormat                           : MPEG-4 Visual\nFormat profile                   : Simple@L3\nFormat settings, BVOP            : No\nFormat settings, QPel            : No\nFormat settings, GMC             : No warppoints\nFormat settings, Matrix          : Default (H.263)\nCodec ID                         : XVID\nCodec ID/Hint                    : XviD\nDuration                         : 1h 53mn\nBit rate                         : 1 720 Kbps\nWidth                            : 720 pixels\nHeight                           : 304 pixels\nDisplay aspect ratio             : 2.35:1\nFrame rate                       : 25.000 fps\nColor space                      : YUV\nChroma subsampling               : 4:2:0\nBit depth                        : 8 bits\nScan type                        : Progressive\nCompression mode                 : Lossy\nBits/(Pixel*Frame)               : 0.314\nStream size                      : 1.37 GiB (79%)\nWriting library                  : XviD 1.1.2 (UTC 2006-11-01)\n\nAudio:\n\nFormat                           : AC-3\nFormat/Info                      : Audio Coding 3\nMode extension                   : CM (complete main)\nCodec ID                         : 2000\nDuration                         : 1h 53mn\nBit rate mode                    : Constant\nBit rate                         : 448 Kbps\nChannel(s)                       : 6 channels\nChannel positions                : Front: L C R, Side: L R, LFE\nSampling rate                    : 48.0 KHz\nBit depth                        : 16 bits\nCompression mode                 : Lossy\nStream size                      : 365 MiB (21%)\nAlignment                        : Aligned on interleaves\nInterleave, duration             : 32 ms (0.80 video frame)\n\n","torrent":{"xt":"urn:btih:b728c28f728970b795f396e6d748a10b84000313","amp;dn":"Percy+Jackson+%26amp%3B+the+Olympians%2C+The+Lightning+Thief+2010+DVD9","amp;tr":["udp%3A%2F%2Ftracker.openbittorrent.com%3A80","udp%3A%2F%2Fopen.demonii.com%3A1337","udp%3A%2F%2Ftracker.coppersurfer.tk%3A6969","udp%3A%2F%2Fexodus.desync.com%3A6969"],"infoHash":"b728c28f728970b795f396e6d748a10b84000313","infoHashBuffer":{"type":"Buffer","data":[183,40,194,143,114,137,112,183,149,243,150,230,215,72,161,11,132,0,3,19]},"announce":[],"urlList":[]}}